<svg id="Capa_1" data-name="Capa 1" xmlns="http://www.w3.org/2000/svg" viewBox="0 0 566.93 566.93"><defs><style>.cls-1,.cls-2{fill:#5fabb5;}.cls-2{font-size:36.89px;font-family:Poppins-SemiBold, Poppins;font-weight:700;}</style></defs><title>drg</title><path class="cls-1" d="M338.36,172.45a12.24,12.24,0,0,1-6.15-1.65,97.52,97.52,0,0,0-48.77-13,12.3,12.3,0,0,1,0-24.59,122.14,122.14,0,0,1,61.09,16.35,12.3,12.3,0,0,1-6.17,22.94Z"/><path class="cls-1" d="M359.76,188.59a12.26,12.26,0,0,1-8.54-3.45,98.05,98.05,0,0,0-19-14.34,12.3,12.3,0,1,1,12.31-21.29,122.68,122.68,0,0,1,23.78,17.94,12.3,12.3,0,0,1-8.54,21.14Z"/><path class="cls-1" d="M283.44,377.49a122.17,122.17,0,0,1,0-244.33,12.3,12.3,0,0,1,0,24.59A97.57,97.57,0,1,0,381,255.41a12.3,12.3,0,0,1,24.58-.77l.05.92a12.41,12.41,0,0,1-.05,2.05A122.3,122.3,0,0,1,283.44,377.49Z"/><path class="cls-1" d="M393.31,267.63H271A12.3,12.3,0,0,1,271,243H393.31a12.3,12.3,0,0,1,0,24.59Z"/><path class="cls-1" d="M271,267.63a12.3,12.3,0,0,1-7.86-21.76l27.46-22.79A12.3,12.3,0,1,1,306.33,242l-27.46,22.79A12.25,12.25,0,0,1,271,267.63Z"/><path class="cls-1" d="M298.31,290a12.25,12.25,0,0,1-7.79-2.78l-27.3-22.36a12.3,12.3,0,0,1,15.59-19l27.3,22.36a12.3,12.3,0,0,1-7.8,21.81Z"/><text class="cls-2" transform="translate(170.59 424.45)">RED GLOCAL </text></svg>